<svg width="25" height="24" viewBox="0 0 25 24" fill="none" xmlns="http://www.w3.org/2000/svg">
<path d="M10.9 20H14.1" stroke="#718096" stroke-width="1.5" stroke-linecap="round" stroke-linejoin="round"/>
<path fill-rule="evenodd" clip-rule="evenodd" d="M7.5 10.032V10V10C7.5 7.239 9.739 5 12.5 5V5C15.261 5 17.5 7.239 17.5 10V10V10.032V12.504C17.5 12.828 17.683 13.123 17.972 13.268L18.475 13.519C19.103 13.834 19.5 14.476 19.5 15.178V15.178C19.5 16.202 18.67 17.032 17.646 17.032H7.354C6.33 17.032 5.5 16.202 5.5 15.178V15.178C5.5 14.476 5.897 13.834 6.525 13.52L7.028 13.269C7.317 13.123 7.5 12.828 7.5 12.504V10.032Z" stroke="#718096" stroke-width="1.5" stroke-linecap="round" stroke-linejoin="round"/>
</svg>
